<?xml version="1.0" encoding="iso-8859-1"?>
<!-- Generator: Adobe Illustrator 19.0.0, SVG Export Plug-In . SVG Version: 6.00 Build 0)  -->
<svg version="1.1" id="Layer_1" xmlns="http://www.w3.org/2000/svg" xmlns:xlink="http://www.w3.org/1999/xlink" x="0px" y="0px"
	 viewBox="0 0 512 512" style="enable-background:new 0 0 512 512;" xml:space="preserve">
<path style="fill:#57A4FF;" d="M256,0C145.461,0,55.543,89.929,55.543,200.468c0,45.882,32.204,110.673,95.736,192.556
	c46.285,59.653,91.796,105.887,93.715,107.826L256,512l11.006-11.151c1.919-1.939,47.43-48.172,93.715-107.826
	c63.532-81.883,95.736-146.673,95.736-192.556C456.457,89.929,366.539,0,256,0z"/>
<path style="fill:#2488FF;" d="M456.457,200.468c0,45.882-32.204,110.673-95.736,192.556
	c-46.285,59.653-91.796,105.887-93.715,107.826L256,512V0C366.539,0,456.457,89.929,456.457,200.468z"/>
<path style="fill:#E30522;" d="M256,72.238c-59.643,0-108.166,48.523-108.166,108.166S196.357,288.571,256,288.571
	s108.166-48.523,108.166-108.166S315.643,72.238,256,72.238z"/>
<path style="fill:#B7042B;" d="M364.166,180.404c0,59.643-48.523,108.166-108.166,108.166V72.238
	C315.643,72.238,364.166,120.761,364.166,180.404z"/>
<g>
</g>
<g>
</g>
<g>
</g>
<g>
</g>
<g>
</g>
<g>
</g>
<g>
</g>
<g>
</g>
<g>
</g>
<g>
</g>
<g>
</g>
<g>
</g>
<g>
</g>
<g>
</g>
<g>
</g>
</svg>
